<svg width="48" height="48" viewBox="0 0 48 48" fill="none" xmlns="http://www.w3.org/2000/svg">
<g filter="url(#filter0_dii_112_860)">
<path d="M1.5 24C1.5 28.425 2.775 32.55 4.95 36H42.975C45.15 32.55 46.425 28.425 46.425 24C46.425 19.575 45.15 15.45 42.975 12H4.95C2.775 15.45 1.5 19.575 1.5 24Z" fill="#FFCE31"/>
<path d="M43.05 12C39.075 5.7 32.025 1.5 24 1.5C15.975 1.5 8.92495 5.7 4.94995 12H43.05ZM4.94995 36C8.92495 42.3 15.975 46.5 24 46.5C32.025 46.5 39.075 42.3 43.05 36H4.94995Z" fill="#ED4C5C"/>
<path d="M6.8999 21.525H9.2999V22.875H6.8999V21.525ZM6.8999 31.425H9.3749V32.7H6.8999V31.425Z" fill="#C8B100"/>
<path d="M6.67505 29.325C6.45005 29.475 6.30005 29.625 6.30005 29.7C6.30005 29.775 6.37505 29.85 6.52505 29.925C6.67505 30 6.82505 30.15 6.75005 30.3C6.90005 30.15 6.97505 30 6.97505 29.85C6.97505 29.625 6.82505 29.4 6.67505 29.325Z" fill="#ED4C5C"/>
<path d="M7.2749 22.875H8.9999V31.425H7.2749V22.875Z" fill="white"/>
<path d="M10.8 26.025C10.425 25.875 9.74998 25.725 8.99998 25.725C8.77498 25.725 8.47498 25.725 8.17498 25.8C7.12498 25.95 6.29998 26.4 6.37498 26.7L5.99998 25.875C5.92498 25.5 6.82498 25.05 7.94998 24.825C8.32498 24.75 8.69998 24.75 8.99998 24.75C9.74998 24.75 10.425 24.825 10.8 24.975V26.025Z" fill="#ED4C5C"/>
<path d="M7.27495 27.15C6.82495 27.15 6.44995 27 6.44995 26.775C6.44995 26.625 6.59995 26.4 6.89995 26.25H7.34995L7.27495 27.15ZM8.99995 26.475C9.29995 26.55 9.52495 26.625 9.67495 26.7C9.74995 26.775 9.44995 27.075 8.99995 27.3V26.475Z" fill="#ED4C5C"/>
<path d="M6.14997 28.8C6.07497 28.65 6.59997 28.35 7.27497 28.125C7.57497 28.05 7.79997 27.9 8.17497 27.75C9.07497 27.375 9.82497 26.85 9.67497 26.7L9.82497 27.6C9.89997 27.75 9.29997 28.2 8.39997 28.65C8.09997 28.8 7.57497 29.025 7.27497 29.1C6.74997 29.25 6.29997 29.55 6.29997 29.625L6.14997 28.8Z" fill="#ED4C5C"/>
<path d="M23.025 21.525H25.425V22.875H23.025V21.525ZM22.95 31.425H25.425V32.7H22.95V31.425Z" fill="#C8B100"/>
<path d="M25.6501 29.325C25.8751 29.475 26.0251 29.625 26.0251 29.7C26.0251 29.775 25.9501 29.85 25.8001 29.925C25.6501 30.075 25.5001 30.3 25.5751 30.375C25.4251 30.225 25.3501 30.075 25.3501 29.925C25.3501 29.625 25.5001 29.4 25.6501 29.325Z" fill="#ED4C5C"/>
<path d="M23.325 22.875H25.05V31.425H23.325V22.875Z" fill="white"/>
<path d="M21.5251 26.025C21.9001 25.875 22.5751 25.725 23.3251 25.725C23.5501 25.725 23.8501 25.725 24.1501 25.8C25.2001 25.95 26.0251 26.4 25.9501 26.7L26.3251 25.8C26.4001 25.425 25.5001 24.975 24.3751 24.75H23.3251C22.5751 24.75 21.9001 24.825 21.5251 24.975V26.025Z" fill="#ED4C5C"/>
<path d="M25.0502 27.15C25.5002 27.15 25.8752 27 25.8752 26.775C25.8752 26.625 25.7252 26.4 25.4252 26.25H24.9752L25.0502 27.15ZM23.3252 26.475C23.0252 26.55 22.8002 26.625 22.6502 26.7C22.5752 26.775 22.8752 27.075 23.3252 27.3V26.475Z" fill="#ED4C5C"/>
<path d="M26.1751 28.8C26.2501 28.65 25.7251 28.35 25.0501 28.125C24.7501 28.05 24.5251 27.9 24.1501 27.75C23.2501 27.375 22.5001 26.85 22.6501 26.7L22.5001 27.6C22.4251 27.75 23.0251 28.2 23.9251 28.65C24.2251 28.8 24.7501 29.025 25.0501 29.1C25.5751 29.25 26.0251 29.625 25.9501 29.7L26.1751 28.8ZM16.1251 16.725C17.5501 16.725 20.4751 17.025 21.5251 18.075C20.4001 20.775 18.6001 19.65 16.1251 19.65C13.7251 19.65 11.8501 20.775 10.7251 18.075C11.7751 17.025 14.6251 16.725 16.1251 16.725Z" fill="#ED4C5C"/>
<path d="M19.8001 19.725C18.9001 19.2 17.5501 19.125 16.1251 19.125C14.7001 19.125 13.3501 19.275 12.4501 19.725L12.7501 21C13.5751 21.225 14.7751 21.375 16.1251 21.375C17.4751 21.375 18.6001 21.225 19.5001 21L19.8001 19.725ZM21.0751 16.5C20.7751 16.275 20.1751 16.05 19.6501 16.05C19.4251 16.05 19.2001 16.05 18.9751 16.125C18.9751 16.125 18.5251 15.525 17.4751 15.525C17.1001 15.525 16.8001 15.6 16.5001 15.75V15.675C16.4251 15.525 16.2751 15.375 16.1251 15.375C15.9751 15.375 15.7501 15.6 15.7501 15.75V15.825C15.4501 15.675 15.1501 15.6 14.7751 15.6C13.7251 15.6 13.2751 16.275 13.2751 16.2C13.0501 16.125 12.8251 16.125 12.6001 16.125C9.1501 16.125 10.8751 18.45 10.8751 18.45L11.2501 18C10.4251 16.95 11.1751 16.35 12.6751 16.35C12.9001 16.35 13.0501 16.35 13.2001 16.425C12.6751 17.175 13.6501 17.85 13.6501 17.85L13.8751 17.475C13.3501 17.1 13.2751 15.825 14.7751 15.825C15.1501 15.825 15.4501 15.9 15.7501 16.125C15.7501 16.2 15.6751 17.25 15.6001 17.4L16.2001 17.925L16.8001 17.4C16.7251 17.175 16.6501 16.2 16.6501 16.125C16.8751 15.975 17.2501 15.825 17.6251 15.825C19.2001 15.825 19.2001 17.1 18.5251 17.475L18.7501 17.85C18.7501 17.85 19.5751 17.175 19.2001 16.425C19.3501 16.425 19.5751 16.35 19.7251 16.35C21.5251 16.35 21.6001 17.7 21.1501 18L21.4501 18.45C21.3001 18.45 22.1251 17.4 21.0751 16.5Z" fill="#C8B100"/>
<path d="M15.675 15.075C15.675 14.85 15.9 14.625 16.125 14.625C16.425 14.625 16.575 14.85 16.575 15.075C16.575 15.3 16.35 15.525 16.125 15.525C15.9 15.525 15.675 15.3 15.675 15.075Z" fill="#005BBF"/>
<path d="M15.975 13.8V14.025H15.75V14.25H15.975V15H15.675V15.225H16.575L16.65 15.075L16.575 15H16.275V14.25H16.5V14.025H16.275V13.8H15.975Z" fill="#C8B100"/>
<path d="M16.125 21.225C14.925 21.225 13.875 21.075 13.05 20.85C13.875 20.625 14.925 20.475 16.125 20.475C17.325 20.475 18.375 20.625 19.2 20.85C18.45 21.075 17.325 21.225 16.125 21.225Z" fill="#ED4C5C"/>
<path d="M16.2 34.1999C14.775 34.1999 13.425 33.825 12.225 33.3C11.325 32.85 10.8 32.025 10.8 31.05V27.4499H21.6V31.05C21.6 32.025 21 32.925 20.175 33.3C18.975 33.9 17.625 34.1999 16.2 34.1999ZM16.125 21.45H21.525V27.4499H16.125V21.45Z" fill="white"/>
<path d="M16.2 31.05C16.2 32.475 15 33.6 13.5 33.6C12 33.6 10.8 32.475 10.8 31.05V27.45H16.2V31.05Z" fill="#ED4C5C"/>
<path d="M11.9251 33.15C12.0751 33.225 12.3001 33.375 12.6001 33.45V27.3H12.0001L11.9251 33.15ZM10.7251 30.975C10.7251 31.725 11.0251 32.325 11.3251 32.625V27.3H10.7251V30.975Z" fill="#C8B100"/>
<path d="M13.125 33.6H13.725V27.3H13.125V33.6Z" fill="#C7B500"/>
<path d="M14.325 33.45C14.55 33.375 14.85 33.225 15 33.15V27.3H14.4L14.325 33.45Z" fill="#C8B100"/>
<path d="M10.7251 21.45H16.1251V27.4499H10.7251V21.45Z" fill="#ED4C5C"/>
<path d="M15.6001 32.625C15.9001 32.4 16.1251 31.875 16.2001 31.275V27.375H15.6001V32.625Z" fill="#C8B100"/>
<path d="M21.6 27.45V31.05C21.6 32.475 20.4 33.6 18.9 33.6C17.4 33.6 16.2 32.475 16.2 31.05V27.45H21.6ZM19.65 22.5C19.875 22.95 19.875 24.075 19.2 23.85C19.35 23.925 19.425 24.45 19.65 24.75C20.025 25.2 20.475 24.825 20.4 24.3C20.25 23.475 20.325 22.95 20.475 22.125C20.475 22.2 20.85 22.2 21 22.05C20.925 22.275 20.85 22.575 21 22.575C20.85 22.8 20.475 23.175 20.4 23.4C20.325 23.925 21.15 24.9 20.25 25.125C19.65 25.275 20.025 25.725 20.25 25.95C20.25 25.95 19.95 26.925 20.1 26.85C19.5 27.075 19.65 26.55 19.65 26.55C19.95 25.65 19.125 25.575 19.2 25.425C18.45 25.35 19.275 26.1 18.6 26.1C18.45 26.1 18.15 26.25 18.15 26.25C17.325 26.175 17.775 25.425 18.075 25.5C18.3 25.575 18.525 25.95 18.525 25.425C18.525 25.425 18.15 24.825 19.125 24.825C18.75 24.825 18.525 24.525 18.375 24.15C18.225 24.225 18 24.6 17.175 24.675C17.175 24.675 16.95 23.85 17.175 24C17.475 24.15 17.625 24.15 17.925 23.85C17.775 23.625 16.875 23.325 17.025 22.8C17.025 22.65 17.475 22.425 17.475 22.425C17.4 22.8 17.625 23.175 18.075 23.175C18.675 23.25 18.45 23.025 18.525 22.875C18.6 22.725 19.05 22.95 18.9 22.575C18.9 22.5 18.375 22.425 18.525 22.2C18.825 21.825 19.275 22.125 19.65 22.5ZM16.2 33.45L16.05 33.075L16.2 32.625L16.35 33.075L16.2 33.45Z" fill="#ED4C5C"/>
<path d="M12.375 22.725V23.1H12.525V23.4H12.15V24.15H12.375V25.8H11.925V26.625H15V25.8H14.625V24.15H14.775V23.4H14.4V23.1H14.625V22.725H13.875V23.1H14.025V23.4H13.65V22.5H13.875V22.125H13.05V22.5H13.275V23.4H12.9V23.1H13.05V22.725H12.375ZM20.85 31.95V28.2H16.95V31.95L18.75 32.775H18.975L20.85 31.95ZM18.75 28.5V29.775L17.475 28.5H18.75ZM17.175 28.575L18.675 30.075L17.175 31.575V28.575ZM17.325 31.875L18.75 30.45V32.55L17.325 31.875ZM18.975 32.475V30.375L20.4 31.8L18.975 32.475ZM20.55 31.575L19.05 30.075L20.55 28.575V31.575ZM18.975 28.5H20.25L18.975 29.775V28.5Z" fill="#C8B100"/>
<path d="M14.3999 27.375C14.3999 26.25 15.1499 25.425 16.1249 25.425C17.0999 25.425 17.8499 26.325 17.8499 27.375C17.8499 28.425 17.0999 29.325 16.1249 29.325C15.1499 29.325 14.3999 28.5 14.3999 27.375Z" fill="#ED4C5C"/>
<path d="M14.925 27.375C14.925 26.55 15.45 25.95 16.125 25.95C16.8 25.95 17.325 26.625 17.325 27.375C17.325 28.2 16.8 28.8 16.125 28.8C15.525 28.875 14.925 28.2 14.925 27.375Z" fill="#005BBF"/>
<path d="M15.6 26.4L15.3 27.225L15.525 27.3L15.375 27.6H15.825L15.675 27.3L15.9 27.225L15.6 26.4ZM16.725 26.4L16.425 27.225L16.65 27.3L16.5 27.6H16.95L16.875 27.3L17.1 27.225L16.725 26.4ZM16.2 27.375L15.825 28.2L16.05 28.275L15.975 28.575H16.35L16.275 28.275L16.5 28.2L16.2 27.375Z" fill="#C8B100"/>
</g>
<defs>
<filter id="filter0_dii_112_860" x="-2" y="-2" width="58" height="58" filterUnits="userSpaceOnUse" color-interpolation-filters="sRGB">
<feFlood flood-opacity="0" result="BackgroundImageFix"/>
<feColorMatrix in="SourceAlpha" type="matrix" values="0 0 0 0 0 0 0 0 0 0 0 0 0 0 0 0 0 0 127 0" result="hardAlpha"/>
<feOffset dx="4" dy="4"/>
<feGaussianBlur stdDeviation="2"/>
<feComposite in2="hardAlpha" operator="out"/>
<feColorMatrix type="matrix" values="0 0 0 0 0 0 0 0 0 0 0 0 0 0 0 0 0 0 0.1 0"/>
<feBlend mode="normal" in2="BackgroundImageFix" result="effect1_dropShadow_112_860"/>
<feBlend mode="normal" in="SourceGraphic" in2="effect1_dropShadow_112_860" result="shape"/>
<feColorMatrix in="SourceAlpha" type="matrix" values="0 0 0 0 0 0 0 0 0 0 0 0 0 0 0 0 0 0 127 0" result="hardAlpha"/>
<feOffset dx="-2" dy="-2"/>
<feGaussianBlur stdDeviation="4"/>
<feComposite in2="hardAlpha" operator="arithmetic" k2="-1" k3="1"/>
<feColorMatrix type="matrix" values="0 0 0 0 0 0 0 0 0 0 0 0 0 0 0 0 0 0 0.1 0"/>
<feBlend mode="normal" in2="shape" result="effect2_innerShadow_112_860"/>
<feColorMatrix in="SourceAlpha" type="matrix" values="0 0 0 0 0 0 0 0 0 0 0 0 0 0 0 0 0 0 127 0" result="hardAlpha"/>
<feOffset dx="2" dy="2"/>
<feGaussianBlur stdDeviation="2"/>
<feComposite in2="hardAlpha" operator="arithmetic" k2="-1" k3="1"/>
<feColorMatrix type="matrix" values="0 0 0 0 1 0 0 0 0 1 0 0 0 0 1 0 0 0 0.1 0"/>
<feBlend mode="normal" in2="effect2_innerShadow_112_860" result="effect3_innerShadow_112_860"/>
</filter>
</defs>
</svg>
