<svg width="48" height="48" viewBox="0 0 48 48" fill="none" xmlns="http://www.w3.org/2000/svg">
<g filter="url(#filter0_dii_112_893)">
<path d="M12.75 43.5V4.5C6 8.4 1.5 15.675 1.5 24C1.5 32.325 6 39.6 12.75 43.5Z" fill="#699635"/>
<path d="M24 1.5C19.875 1.5 16.05 2.625 12.75 4.5V43.5C16.05 45.45 19.875 46.5 24 46.5C36.45 46.5 46.5 36.45 46.5 24C46.5 11.55 36.45 1.5 24 1.5Z" fill="#ED4C5C"/>
<path d="M12.75 15C7.8 15 3.75 19.05 3.75 24C3.75 28.95 7.8 33 12.75 33C17.7 33 21.75 28.95 21.75 24C21.75 19.05 17.7 15 12.75 15ZM12.75 31.875C8.4 31.875 4.875 28.35 4.875 24C4.875 19.65 8.4 16.125 12.75 16.125C17.1 16.125 20.625 19.65 20.625 24C20.625 28.35 17.1 31.875 12.75 31.875Z" fill="#FFE62E"/>
<path d="M15.8249 32.775C15.6749 32.925 15.4499 32.925 15.2999 32.775L5.02485 19.2C4.87485 19.05 4.87485 18.825 5.02485 18.675L5.24985 18.45C5.39985 18.3 5.62485 18.3 5.77485 18.45L16.0499 32.025C16.1999 32.175 16.1999 32.4 16.0499 32.55L15.8249 32.775Z" fill="#FFE62E"/>
<path d="M12.8999 14.625C13.1249 14.625 13.2749 14.775 13.2749 15V33C13.2749 33.225 13.1249 33.375 12.8999 33.375H12.5249C12.2999 33.375 12.1499 33.225 12.1499 33V15C12.1499 14.775 12.2999 14.625 12.5249 14.625H12.8999Z" fill="#FFE62E"/>
<path d="M21.6749 24.975L12.7499 23.4V24.525L21.5249 26.1C21.7499 26.1 21.8999 26.025 21.9749 25.8L22.0499 25.425C22.0499 25.275 21.8999 25.05 21.6749 24.975ZM12.7499 23.325L5.69993 18.375C5.54993 18.225 5.32493 18.3 5.17493 18.45L4.94993 18.75C4.79993 18.9 4.87493 19.125 5.02493 19.275L12.7499 24.675V23.325Z" fill="#FFE62E"/>
<path d="M12.45 22.5L5.39997 29.55C5.24997 29.7 5.24997 29.925 5.39997 30.075L5.69997 30.375C5.84997 30.525 6.07497 30.525 6.22497 30.375L12.45 24.15V22.5ZM12.75 19.125L3.37497 23.55C3.22497 23.625 3.07497 23.85 3.22497 24.075L3.37497 24.45C3.44997 24.6 3.67497 24.75 3.89997 24.6L12.75 20.4V19.125Z" fill="#FFE62E"/>
<path d="M21.0749 20.4L12.1499 18.825V19.95L20.9249 21.525C21.1499 21.525 21.2999 21.45 21.3749 21.225L21.4499 20.85C21.3749 20.625 21.2249 20.4 21.0749 20.4ZM12.6749 29.175C12.5249 29.25 12.3749 29.4749 12.5249 29.6999L12.6749 30.0749C12.7499 30.2249 12.9749 30.375 13.1999 30.225L20.6999 26.775L21.0749 25.35L12.6749 29.175ZM12.6749 26.625L4.2749 23.55V24.75L12.6749 27.8249V26.625Z" fill="#FFE62E"/>
<path d="M6.82495 29.1V30.225L17.925 30.975C18.375 30.675 18.75 30.3 19.125 29.925L6.82495 29.1Z" fill="#FFE62E"/>
<path d="M9 20.25V25.5C9 27.6 10.65 29.25 12.75 29.25C14.85 29.25 16.5 27.6 16.5 25.5V20.25H9Z" fill="white"/>
<path d="M12.75 30.75C9.825 30.75 7.5 28.425 7.5 25.5V18.75H18V25.5C18 28.425 15.675 30.75 12.75 30.75ZM10.5 21.75V25.5C10.5 26.775 11.475 27.75 12.75 27.75C14.025 27.75 15 26.775 15 25.5V21.75H10.5Z" fill="#ED4C5C"/>
<path d="M12.075 22.05V23.25C12.075 23.475 12.225 23.625 12.45 23.625H13.05C13.275 23.625 13.425 23.475 13.425 23.25V21.975H12.075V22.05ZM12.075 23.925V25.2C12.075 25.425 12.225 25.575 12.45 25.575H13.05C13.275 25.575 13.425 25.425 13.425 25.2V23.925H12.075ZM10.575 23.925V25.2C10.575 25.425 10.725 25.575 10.95 25.575H11.55C11.775 25.575 11.925 25.425 11.925 25.2V23.925H10.575ZM13.575 23.925V25.2C13.575 25.425 13.725 25.575 13.95 25.575H14.55C14.775 25.575 14.925 25.425 14.925 25.2V23.925H13.575ZM12.075 25.725V27C12.075 27.225 12.225 27.375 12.45 27.375H13.05C13.275 27.375 13.425 27.225 13.425 27V25.725H12.075Z" fill="#0071BC"/>
<path d="M12.7501 24.825C12.8329 24.825 12.9001 24.7579 12.9001 24.675C12.9001 24.5922 12.8329 24.525 12.7501 24.525C12.6673 24.525 12.6001 24.5922 12.6001 24.675C12.6001 24.7579 12.6673 24.825 12.7501 24.825Z" fill="white"/>
<path d="M12.45 25.2C12.5329 25.2 12.6 25.1329 12.6 25.05C12.6 24.9672 12.5329 24.9 12.45 24.9C12.3672 24.9 12.3 24.9672 12.3 25.05C12.3 25.1329 12.3672 25.2 12.45 25.2Z" fill="white"/>
<path d="M13.0501 25.2C13.133 25.2 13.2001 25.1329 13.2001 25.05C13.2001 24.9672 13.133 24.9 13.0501 24.9C12.9673 24.9 12.9001 24.9672 12.9001 25.05C12.9001 25.1329 12.9673 25.2 13.0501 25.2Z" fill="white"/>
<path d="M12.45 24.45C12.5329 24.45 12.6 24.3829 12.6 24.3C12.6 24.2172 12.5329 24.15 12.45 24.15C12.3672 24.15 12.3 24.2172 12.3 24.3C12.3 24.3829 12.3672 24.45 12.45 24.45Z" fill="white"/>
<path d="M13.0501 24.45C13.133 24.45 13.2001 24.3829 13.2001 24.3C13.2001 24.2172 13.133 24.15 13.0501 24.15C12.9673 24.15 12.9001 24.2172 12.9001 24.3C12.9001 24.3829 12.9673 24.45 13.0501 24.45Z" fill="white"/>
<path d="M12.7501 22.95C12.8329 22.95 12.9001 22.8829 12.9001 22.8C12.9001 22.7172 12.8329 22.65 12.7501 22.65C12.6673 22.65 12.6001 22.7172 12.6001 22.8C12.6001 22.8829 12.6673 22.95 12.7501 22.95Z" fill="white"/>
<path d="M12.45 23.325C12.5329 23.325 12.6 23.2579 12.6 23.175C12.6 23.0922 12.5329 23.025 12.45 23.025C12.3672 23.025 12.3 23.0922 12.3 23.175C12.3 23.2579 12.3672 23.325 12.45 23.325Z" fill="white"/>
<path d="M13.0501 23.325C13.133 23.325 13.2001 23.2579 13.2001 23.175C13.2001 23.0922 13.133 23.025 13.0501 23.025C12.9673 23.025 12.9001 23.0922 12.9001 23.175C12.9001 23.2579 12.9673 23.325 13.0501 23.325Z" fill="white"/>
<path d="M12.45 22.575C12.5329 22.575 12.6 22.5079 12.6 22.425C12.6 22.3422 12.5329 22.275 12.45 22.275C12.3672 22.275 12.3 22.3422 12.3 22.425C12.3 22.5079 12.3672 22.575 12.45 22.575Z" fill="white"/>
<path d="M13.0501 22.575C13.133 22.575 13.2001 22.5079 13.2001 22.425C13.2001 22.3422 13.133 22.275 13.0501 22.275C12.9673 22.275 12.9001 22.3422 12.9001 22.425C12.9001 22.5079 12.9673 22.575 13.0501 22.575Z" fill="white"/>
<path d="M14.2501 24.825C14.3329 24.825 14.4001 24.7579 14.4001 24.675C14.4001 24.5922 14.3329 24.525 14.2501 24.525C14.1673 24.525 14.1001 24.5922 14.1001 24.675C14.1001 24.7579 14.1673 24.825 14.2501 24.825Z" fill="white"/>
<path d="M13.95 25.2C14.0329 25.2 14.1 25.1329 14.1 25.05C14.1 24.9672 14.0329 24.9 13.95 24.9C13.8672 24.9 13.8 24.9672 13.8 25.05C13.8 25.1329 13.8672 25.2 13.95 25.2Z" fill="white"/>
<path d="M14.5501 25.2C14.633 25.2 14.7001 25.1329 14.7001 25.05C14.7001 24.9672 14.633 24.9 14.5501 24.9C14.4673 24.9 14.4001 24.9672 14.4001 25.05C14.4001 25.1329 14.4673 25.2 14.5501 25.2Z" fill="white"/>
<path d="M13.95 24.45C14.0329 24.45 14.1 24.3829 14.1 24.3C14.1 24.2172 14.0329 24.15 13.95 24.15C13.8672 24.15 13.8 24.2172 13.8 24.3C13.8 24.3829 13.8672 24.45 13.95 24.45Z" fill="white"/>
<path d="M14.5501 24.45C14.633 24.45 14.7001 24.3829 14.7001 24.3C14.7001 24.2172 14.633 24.15 14.5501 24.15C14.4673 24.15 14.4001 24.2172 14.4001 24.3C14.4001 24.3829 14.4673 24.45 14.5501 24.45Z" fill="white"/>
<path d="M11.2501 24.825C11.3329 24.825 11.4001 24.7579 11.4001 24.675C11.4001 24.5922 11.3329 24.525 11.2501 24.525C11.1673 24.525 11.1001 24.5922 11.1001 24.675C11.1001 24.7579 11.1673 24.825 11.2501 24.825Z" fill="white"/>
<path d="M10.95 25.2C11.0329 25.2 11.1 25.1329 11.1 25.05C11.1 24.9672 11.0329 24.9 10.95 24.9C10.8672 24.9 10.8 24.9672 10.8 25.05C10.8 25.1329 10.8672 25.2 10.95 25.2Z" fill="white"/>
<path d="M11.5501 25.2C11.633 25.2 11.7001 25.1329 11.7001 25.05C11.7001 24.9672 11.633 24.9 11.5501 24.9C11.4673 24.9 11.4001 24.9672 11.4001 25.05C11.4001 25.1329 11.4673 25.2 11.5501 25.2Z" fill="white"/>
<path d="M10.95 24.45C11.0329 24.45 11.1 24.3829 11.1 24.3C11.1 24.2172 11.0329 24.15 10.95 24.15C10.8672 24.15 10.8 24.2172 10.8 24.3C10.8 24.3829 10.8672 24.45 10.95 24.45Z" fill="white"/>
<path d="M11.5501 24.45C11.633 24.45 11.7001 24.3829 11.7001 24.3C11.7001 24.2172 11.633 24.15 11.5501 24.15C11.4673 24.15 11.4001 24.2172 11.4001 24.3C11.4001 24.3829 11.4673 24.45 11.5501 24.45Z" fill="white"/>
<path d="M12.7501 26.7C12.8329 26.7 12.9001 26.6329 12.9001 26.55C12.9001 26.4672 12.8329 26.4 12.7501 26.4C12.6673 26.4 12.6001 26.4672 12.6001 26.55C12.6001 26.6329 12.6673 26.7 12.7501 26.7Z" fill="white"/>
<path d="M12.45 27.075C12.5329 27.075 12.6 27.0079 12.6 26.925C12.6 26.8422 12.5329 26.775 12.45 26.775C12.3672 26.775 12.3 26.8422 12.3 26.925C12.3 27.0079 12.3672 27.075 12.45 27.075Z" fill="white"/>
<path d="M13.0501 27.075C13.133 27.075 13.2001 27.0079 13.2001 26.925C13.2001 26.8422 13.133 26.775 13.0501 26.775C12.9673 26.775 12.9001 26.8422 12.9001 26.925C12.9001 27.0079 12.9673 27.075 13.0501 27.075Z" fill="white"/>
<path d="M12.45 26.325C12.5329 26.325 12.6 26.2579 12.6 26.175C12.6 26.0922 12.5329 26.025 12.45 26.025C12.3672 26.025 12.3 26.0922 12.3 26.175C12.3 26.2579 12.3672 26.325 12.45 26.325Z" fill="white"/>
<path d="M13.0501 26.325C13.133 26.325 13.2001 26.2579 13.2001 26.175C13.2001 26.0922 13.133 26.025 13.0501 26.025C12.9673 26.025 12.9001 26.0922 12.9001 26.175C12.9001 26.2579 12.9673 26.325 13.0501 26.325Z" fill="white"/>
<path d="M12 21H13.5L13.35 20.25V19.5H13.5V19.125H13.275V19.35H13.2V19.125H12.975V19.35H12.825V19.125H12.675V19.35H12.525V19.125H12.3V19.35H12.15V19.125H12V19.5H12.15V20.25L12 21Z" fill="#FFE62E"/>
<path d="M12.975 21H12.9V20.7C12.9 20.625 12.825 20.55 12.75 20.55C12.675 20.55 12.6 20.625 12.6 20.7V21H12.525V20.7C12.525 20.55 12.6 20.475 12.75 20.475C12.9 20.475 12.975 20.55 12.975 20.7V21ZM12.75 20.175H12.3V19.8C12.3 19.65 12.375 19.575 12.525 19.575C12.675 19.575 12.75 19.65 12.75 19.8V20.175ZM12.375 20.1H12.675V19.8C12.675 19.725 12.6 19.65 12.525 19.65C12.45 19.65 12.375 19.725 12.375 19.8V20.1ZM13.2 20.175H12.75V19.8C12.75 19.65 12.825 19.575 12.975 19.575C13.125 19.575 13.2 19.65 13.2 19.8V20.175ZM12.825 20.1H13.125V19.8C13.125 19.725 13.05 19.65 12.975 19.65C12.9 19.65 12.825 19.725 12.825 19.8V20.1Z" fill="#3E4347"/>
<path d="M8.25 21H9.75L9.6 20.25V19.5H9.75V19.125H9.525V19.35H9.45V19.125H9.225V19.35H9.075V19.125H8.925V19.35H8.775V19.125H8.55V19.35H8.4V19.125H8.25V19.5H8.4V20.25L8.25 21Z" fill="#FFE62E"/>
<path d="M9.22505 21H9.15005V20.7C9.15005 20.625 9.07505 20.55 9.00005 20.55C8.92505 20.55 8.85005 20.625 8.85005 20.7V21H8.77505V20.7C8.77505 20.55 8.85005 20.475 9.00005 20.475C9.15005 20.475 9.22505 20.55 9.22505 20.7V21ZM9.00005 20.175H8.55005V19.8C8.55005 19.65 8.62505 19.575 8.77505 19.575C8.92505 19.575 9.00005 19.65 9.00005 19.8V20.175ZM8.62505 20.1H8.92505V19.8C8.92505 19.725 8.85005 19.65 8.77505 19.65C8.70005 19.65 8.62505 19.725 8.62505 19.8V20.1Z" fill="#3E4347"/>
<path d="M9.45 20.175H9V19.8C9 19.65 9.075 19.575 9.225 19.575C9.375 19.575 9.45 19.65 9.45 19.8V20.175ZM9.075 20.1H9.375V19.8C9.375 19.725 9.3 19.65 9.225 19.65C9.15 19.65 9.075 19.725 9.075 19.8V20.1Z" fill="#3E4347"/>
<path d="M8.25 25.4251H9.75L9.6 24.6751V23.925H9.75V23.55H9.6V23.775H9.45V23.55H9.3V23.775H9.075V23.55H8.925V23.775H8.775V23.55H8.625V23.775H8.475V23.55H8.25V23.925H8.475V24.6751L8.25 25.4251Z" fill="#FFE62E"/>
<path d="M9.22505 25.425H9.15005V25.125C9.15005 25.05 9.07505 24.975 9.00005 24.975C8.92505 24.975 8.85005 25.05 8.85005 25.125V25.425H8.77505V25.125C8.77505 24.975 8.85005 24.9 9.00005 24.9C9.15005 24.9 9.22505 24.975 9.22505 25.125V25.425ZM9.00005 24.6H8.55005V24.225C8.55005 24.075 8.62505 24 8.77505 24C8.92505 24 9.00005 24.075 9.00005 24.225V24.6ZM8.62505 24.525H8.92505V24.225C8.92505 24.15 8.85005 24.075 8.77505 24.075C8.70005 24.075 8.62505 24.15 8.62505 24.225V24.525ZM9.52505 24.6H9.07505V24.225C9.07505 24.075 9.15005 24 9.30005 24C9.45005 24 9.52505 24.075 9.52505 24.225V24.6ZM9.15005 24.525H9.45005V24.225C9.45005 24.15 9.37505 24.075 9.30005 24.075C9.22505 24.075 9.15005 24.15 9.15005 24.225V24.525Z" fill="#3E4347"/>
<path d="M15.75 25.5H17.25L17.1 24.75V24H17.25V23.7H17.025V23.85H16.95V23.7H16.725V23.85H16.575V23.7H16.425V23.85H16.275V23.7H16.05V23.85H15.9V23.7H15.75V24H15.9V24.75L15.75 25.5Z" fill="#FFE62E"/>
<path d="M16.725 25.5H16.65V25.2C16.65 25.125 16.575 25.05 16.5 25.05C16.425 25.05 16.35 25.125 16.35 25.2V25.5H16.275V25.2C16.275 25.05 16.35 24.975 16.5 24.975C16.65 24.975 16.725 25.05 16.725 25.2V25.5ZM16.5 24.675H16.05V24.3C16.05 24.15 16.125 24.075 16.275 24.075C16.425 24.075 16.5 24.15 16.5 24.3V24.675ZM16.125 24.6H16.425V24.3C16.425 24.225 16.35 24.15 16.275 24.15C16.2 24.15 16.125 24.225 16.125 24.3V24.6ZM16.95 24.675H16.5V24.3C16.5 24.15 16.575 24.075 16.725 24.075C16.875 24.075 16.95 24.15 16.95 24.3V24.675ZM16.575 24.6H16.875V24.3C16.875 24.225 16.8 24.15 16.725 24.15C16.65 24.15 16.575 24.225 16.575 24.3V24.6Z" fill="#3E4347"/>
<path d="M15.75 21H17.25L17.1 20.25V19.5H17.25V19.125H17.025V19.35H16.95V19.125H16.725V19.35H16.575V19.125H16.425V19.35H16.275V19.125H16.05V19.35H15.9V19.125H15.75V19.5H15.9V20.25L15.75 21Z" fill="#FFE62E"/>
<path d="M16.725 21H16.65V20.7C16.65 20.625 16.575 20.55 16.5 20.55C16.425 20.55 16.35 20.625 16.35 20.7V21H16.275V20.7C16.275 20.55 16.35 20.475 16.5 20.475C16.65 20.475 16.725 20.55 16.725 20.7V21ZM16.5 20.175H16.05V19.8C16.05 19.65 16.125 19.575 16.275 19.575C16.425 19.575 16.5 19.65 16.5 19.8V20.175ZM16.125 20.1H16.425V19.8C16.425 19.725 16.35 19.65 16.275 19.65C16.2 19.65 16.125 19.725 16.125 19.8V20.1ZM16.95 20.175H16.5V19.8C16.5 19.65 16.575 19.575 16.725 19.575C16.875 19.575 16.95 19.65 16.95 19.8V20.175ZM16.575 20.1H16.875V19.8C16.875 19.725 16.8 19.65 16.725 19.65C16.65 19.65 16.575 19.725 16.575 19.8V20.1Z" fill="#3E4347"/>
<path d="M10.65 29.7L11.7 28.575L11.025 28.2L10.5 27.675L10.65 27.525L10.425 27.3L10.275 27.45L10.425 27.6L10.35 27.675L10.2 27.525L10.05 27.675L10.2 27.75L10.05 27.9L9.975 27.75L9.825 27.9L9.975 28.05L9.825 28.125L9.75 27.975L9.6 28.125L9.675 28.275L9.6 28.35L9.525 28.2L9.375 28.35L9.6 28.575H9.675L9.75 28.5L10.275 29.025L10.65 29.7Z" fill="#FFE62E"/>
<path d="M11.025 28.8C10.95 28.725 10.875 28.725 10.8 28.8C10.725 28.875 10.725 28.95 10.8 29.025L11.025 29.25L10.95 29.325L10.725 29.1C10.65 29.025 10.65 28.875 10.725 28.8C10.8 28.725 10.95 28.725 11.025 28.8ZM10.575 28.575L10.275 28.875L10.05 28.65C9.97501 28.575 9.97501 28.425 10.05 28.35C10.125 28.275 10.275 28.275 10.35 28.35L10.575 28.575ZM10.275 28.8L10.5 28.575L10.275 28.35C10.2 28.275 10.125 28.275 10.05 28.35C9.93751 28.4625 9.97501 28.5 10.05 28.575L10.275 28.8ZM10.95 28.2L10.65 28.5L10.425 28.275C10.35 28.2 10.35 28.05 10.425 27.975C10.5 27.9 10.65 27.9 10.725 27.975L10.95 28.2ZM10.65 28.425L10.875 28.2L10.65 27.975C10.575 27.9 10.5 27.9 10.425 27.975C10.3125 28.0875 10.35 28.125 10.425 28.2L10.65 28.425Z" fill="#3E4347"/>
<path d="M14.85 29.7L13.8 28.575L14.4 28.2L14.925 27.675L14.85 27.525L15.075 27.3L15.225 27.45L15.075 27.6L15.15 27.675L15.3 27.525L15.45 27.675L15.3 27.75L15.45 27.9L15.525 27.75L15.675 27.9L15.525 28.05L15.675 28.125L15.75 27.975L15.9 28.125L15.75 28.275L15.9 28.35L15.975 28.2L16.125 28.35L15.9 28.575H15.825L15.75 28.5L15.225 29.025L14.85 29.7Z" fill="#FFE62E"/>
<path d="M14.175 28.95L14.475 28.8C14.55 28.725 14.625 28.725 14.7 28.8C14.8125 28.9125 14.775 28.95 14.7 29.025L14.4 29.25L14.475 29.325L14.7 29.1C14.775 29.025 14.775 28.875 14.7 28.8C14.625 28.725 14.475 28.725 14.4 28.8L14.175 28.95ZM15.15 28.35C15.225 28.275 15.375 28.275 15.45 28.35C15.525 28.425 15.525 28.575 15.45 28.65L15.225 28.875L14.925 28.575L15.15 28.35ZM15.375 28.575C15.45 28.5 15.45 28.425 15.375 28.35C15.3 28.275 15.225 28.275 15.15 28.35L15 28.575L15.225 28.8L15.375 28.575ZM14.775 27.975C14.85 27.9 15 27.9 15.075 27.975C15.15 28.05 15.15 28.2 15.075 28.275L14.85 28.5L14.55 28.2L14.775 27.975ZM15.075 28.2C15.15 28.125 15.15 28.05 15.075 27.975C15 27.9 14.925 27.9 14.85 27.975L14.625 28.2L14.85 28.425L15.075 28.2Z" fill="#3E4347"/>
</g>
<defs>
<filter id="filter0_dii_112_893" x="-2" y="-2" width="58" height="58" filterUnits="userSpaceOnUse" color-interpolation-filters="sRGB">
<feFlood flood-opacity="0" result="BackgroundImageFix"/>
<feColorMatrix in="SourceAlpha" type="matrix" values="0 0 0 0 0 0 0 0 0 0 0 0 0 0 0 0 0 0 127 0" result="hardAlpha"/>
<feOffset dx="4" dy="4"/>
<feGaussianBlur stdDeviation="2"/>
<feComposite in2="hardAlpha" operator="out"/>
<feColorMatrix type="matrix" values="0 0 0 0 0 0 0 0 0 0 0 0 0 0 0 0 0 0 0.1 0"/>
<feBlend mode="normal" in2="BackgroundImageFix" result="effect1_dropShadow_112_893"/>
<feBlend mode="normal" in="SourceGraphic" in2="effect1_dropShadow_112_893" result="shape"/>
<feColorMatrix in="SourceAlpha" type="matrix" values="0 0 0 0 0 0 0 0 0 0 0 0 0 0 0 0 0 0 127 0" result="hardAlpha"/>
<feOffset dx="-2" dy="-2"/>
<feGaussianBlur stdDeviation="4"/>
<feComposite in2="hardAlpha" operator="arithmetic" k2="-1" k3="1"/>
<feColorMatrix type="matrix" values="0 0 0 0 0 0 0 0 0 0 0 0 0 0 0 0 0 0 0.1 0"/>
<feBlend mode="normal" in2="shape" result="effect2_innerShadow_112_893"/>
<feColorMatrix in="SourceAlpha" type="matrix" values="0 0 0 0 0 0 0 0 0 0 0 0 0 0 0 0 0 0 127 0" result="hardAlpha"/>
<feOffset dx="2" dy="2"/>
<feGaussianBlur stdDeviation="2"/>
<feComposite in2="hardAlpha" operator="arithmetic" k2="-1" k3="1"/>
<feColorMatrix type="matrix" values="0 0 0 0 1 0 0 0 0 1 0 0 0 0 1 0 0 0 0.1 0"/>
<feBlend mode="normal" in2="effect2_innerShadow_112_893" result="effect3_innerShadow_112_893"/>
</filter>
</defs>
</svg>
