
<svg width="0" height="0" class="hidden">
<symbol xmlns="http://www.w3.org/2000/svg" viewBox="0 0 128 128" id="svg-leaf">
    <g clip-path="url(#clip0_84_115)">
        <path d="m362.614 232.296c16.16-25.321 27.12-58.05 27.61-89.179l-65.4 65.387c14.58 3.629 27.75 12.416 37.79 23.792z"></path>
        <path d="m369.014 121.914c-31.15.5-63.88 11.456-89.2 27.601 11.36 10.046 20.15 23.202 23.79 37.787z"></path>
        <path d="m234.274 256.608 40.65-40.636c3.94-12.796.87-28.05-9.26-38.177l-11.03-11.026c-16.81 12.366-35 27.591-51.33 45.285l14.05 14.045c8.71 8.706 14.34 19.322 16.92 30.509z"></path>
        <path d="m300.064 308.78c17.69-16.334 32.92-34.518 45.29-51.322l-11.03-11.026c-13.51-13.505-33.81-12.116-47.18-.27l-.03.03-31.62 31.609c11.19 2.589 21.81 8.227 30.52 16.934z"></path>
        <path d="m222.824 355.134c19.43-5.568 37.5-15.265 53.97-27.201l-12-11.996c-13.5-13.495-33.79-12.116-47.16-.28l-25.73 25.711c6.55 10.687 16.87 17.794 30.92 13.766z"></path>
        <path d="m184.134 235.305c-11.94 16.464-21.64 34.528-27.21 53.951-4.03 14.045 3.08 24.362 13.77 30.909l33.06-33.049c5.43-12.966 3.16-29.04-7.62-39.816z"></path>
        <path d="m128.084 280.999c9.17-31.979 28.35-63.408 56.99-93.388 22.99-24.052 51.37-46.584 84.36-66.977 38.96-20.933 83.48-33.059 127.31-26.441l88.84-88.81c-83.053-17.063-172.257 7.992-242.358 53.151-92.027 59.284-183.102 145.458-208.892 253.265-10.66 44.515 10.89 75.504 49.28 95.417l65.36-65.337c-18.88-13.936-28-36.118-20.89-60.88z"></path>
        <path d="m506.794 26.586-88.83 88.8c6.61 43.815-5.52 88.33-26.46 127.286-20.4 32.969-42.94 61.349-67 84.321-29.99 28.63-61.42 47.804-93.42 56.97-24.77 7.108-46.96-2.009-60.89-20.883l-65.37 65.338c-2.39-4.599-4.61-9.447-6.69-14.515-4.927-2.036-9.766-4.265-14.52-6.688l-83.61 83.581 21.22 21.204 83.6-83.571c19.93 38.367 50.92 59.9 95.45 49.263 119.08-28.48 211.79-136.533 271.01-237.578 36.82-72.726 48.69-149.37 35.51-213.528z"></path>
    </g>
    <defs>
        <clipPath id="clip0_84_115">
            <rect width="128" height="128"></rect>
        </clipPath>
    </defs>
</symbol>
</svg>
