<svg width="0" height="0" class="hidden">
    <symbol id="svg-map" enable-background="new 0 0 512 512" xmlns="http://www.w3.org/2000/svg" viewBox="0 0 512 512">
        <g>
            <g>
                <g>
                    <path d="m512 120.285v391.715h-52.23v-98.292l-39.27-51.881v-62.763l-40.46-44.677c71.02-5.16 127.8-62.673 131.96-134.102z"></path>
                </g>
            </g>
            <g>
                <g>
                    <path d="m152.19 109.103v55.629l-32.93 34.677h-119.26v-90.306z"></path>
                </g>
            </g>
            <g>
                <g>
                    <path d="m237.71 450.841v-34.057l-96.93-66.33h-140.78v161.546h310.49zm-116.29-.451h-30v-30.059h30z"></path>
                </g>
            </g>
            <g>
                <g>
                    <path d="m482.25 111.848c0 57.071-42.5 104.384-97.46 111.828l54.66-111.828-54.66-111.818c54.855 7.423 97.46 56.454 97.46 111.818z"></path>
                </g>
            </g>
            <g>
                <path d="m354.66 223.707c-55.656-7.202-99.496-58.249-97.64-114.604 1.33-55.909 43.46-101.869 97.63-109.103l-55.79 111.848z"></path>
            </g>
            <path d="m398.7 96.819h-58.8l29.7-59.536z"></path>
            <path d="m398.7 126.878-29.1 59.546-29.7-59.546z"></path>
            <path d="m390.5 371.936v-59.806l-55.88-61.721c-31.78-8.056-59.34-26.832-78.62-52.242-19.155-25.257-29.687-57.325-28.99-89.064h-44.82v67.642l-50.06 52.723h-132.13v90.928h150.05l117.66 80.517v35.9l89.46 75.187h72.6v-88.182zm-193.12-102.44h-30v-30.059h30zm73.62 57.994h-30.03v-30.059h30.03zm74.63 65.107h-30v-30.059h30z"></path>
        </g>
    </symbol>
</svg>