<svg width="128" height="128" viewBox="0 0 128 128" fill="none" xmlns="http://www.w3.org/2000/svg">
<g clip-path="url(#clip0_18_345)">
<path d="M34.1947 9.60533C25.1397 12.8178 17.9145 19.7778 14.372 28.6978L8.89697 42.4928C8.37447 42.0653 7.87697 41.6153 7.40447 41.1428C2.71197 36.4528 0.226965 29.4253 0.0144653 20.2578C-0.138035 13.7378 0.964465 8.49533 1.01197 8.27533C1.31947 6.83033 2.44947 5.70032 3.89447 5.39282C4.11447 5.34532 9.35447 4.24282 15.877 4.39532C23.4997 4.57282 29.6422 6.32033 34.1947 9.60533Z" fill="white" fill-opacity="0.25"/>
<path d="M127.986 20.2578C127.773 29.4253 125.288 36.4528 120.596 41.1428C120.123 41.6153 119.626 42.0653 119.103 42.4928L113.628 28.6953C110.088 19.7778 102.863 12.8228 93.8053 9.60533C98.3578 6.32033 104.5 4.57282 112.123 4.39532C118.646 4.24282 123.886 5.34532 124.106 5.39282C125.551 5.70032 126.681 6.83033 126.988 8.27533C127.036 8.49533 128.138 13.7378 127.986 20.2578Z" fill="white" fill-opacity="0.25"/>
<path d="M113.858 49.6053L106.658 31.4627C103.913 24.5527 98.3131 19.1603 91.2803 16.6653C88.2353 15.6453 85.1478 15.0753 82.0103 14.4753C78.0278 11.0278 78.6103 4.19025 78.6153 4.13275C78.7528 2.78775 78.1578 1.47525 77.0578 0.692751C75.9553 -0.0897493 74.5178 -0.219749 73.2953 0.355251C69.9178 1.93525 66.7928 4.82525 64.0003 8.93775C61.2078 4.82525 58.0828 1.93525 54.7053 0.355251C53.4828 -0.219749 52.0453 -0.0897493 50.9428 0.692751C49.8428 1.47525 49.2478 2.78775 49.3853 4.13275C49.3928 4.20525 49.9628 11.0353 45.9903 14.4753C42.8403 15.0778 39.7578 15.6453 36.7078 16.6702C29.6878 19.1602 24.0878 24.5527 21.3425 31.4653L14.1425 49.6053C11.115 57.2303 11.9175 65.9177 16.29 72.8577L27.9675 92.5102C30.109 87.4487 33.468 83.233 38.04 79.6728C45.0975 74.2028 54.3178 71.1902 64.0003 71.1902C73.6828 71.1902 82.9031 74.2028 89.9606 79.6728C94.5488 83.2455 97.9143 87.4775 100.056 92.5628L111.713 72.8528C116.083 65.9153 116.886 57.2303 113.858 49.6053ZM39.0398 67.1302C36.9698 67.1302 35.2898 65.4502 35.2898 63.3802C35.2898 61.3078 36.9698 59.6302 39.0398 59.6302C41.1098 59.6302 42.7898 61.3078 42.7898 63.3802C42.7898 65.4502 41.1098 67.1302 39.0398 67.1302ZM88.9603 67.1302C86.8903 67.1302 85.2103 65.4502 85.2103 63.3802C85.2103 61.3078 86.8903 59.6302 88.9603 59.6302C91.0303 59.6302 92.7103 61.3078 92.7103 63.3802C92.7103 65.4502 91.0303 67.1302 88.9603 67.1302Z" fill="white" fill-opacity="0.25"/>
<path d="M32.1673 121.25C22.4798 120.76 14.832 117.783 9.34453 112.348C-1.01047 102.095 0.579534 87.1 0.652034 86.465C0.819534 85.0025 1.82953 83.7725 3.23203 83.3225C4.63453 82.8725 6.17204 83.285 7.15954 84.3775C7.23204 84.455 14.722 92.4825 27.1923 94.5725C26.2573 97.3975 25.7848 100.335 25.7848 103.345C25.7848 107.945 26.8873 112.373 29.0623 116.5C29.9398 118.165 30.9748 119.75 32.1673 121.25Z" fill="white" fill-opacity="0.25"/>
<path d="M118.656 112.348C113.168 117.783 105.521 120.76 95.8328 121.25C97.0253 119.75 98.0603 118.165 98.9378 116.5C101.113 112.373 102.215 107.945 102.215 103.345C102.215 100.335 101.743 97.3975 100.808 94.5725C113.283 92.48 120.771 84.455 120.851 84.37C121.838 83.275 123.371 82.8675 124.773 83.3175C126.176 83.7675 127.181 85.0025 127.348 86.465C127.421 87.1 129.011 102.095 118.656 112.348Z" fill="white" fill-opacity="0.25"/>
<path d="M85.3653 85.6001C79.6178 81.1451 72.0303 78.6901 64 78.6901C55.9698 78.6901 48.3825 81.1451 42.6348 85.6001C36.6048 90.2726 33.2848 96.5751 33.2848 103.345C33.2848 110.115 36.6048 116.418 42.6348 121.09C48.3825 125.548 55.97 128 64 128C72.03 128 79.6178 125.548 85.3653 121.09C91.3953 116.418 94.7153 110.115 94.7153 103.345C94.7153 96.5751 91.3953 90.2726 85.3653 85.6001ZM51.8775 106.97C49.8075 106.97 48.1275 105.293 48.1275 103.22C48.1275 101.15 49.8075 99.4701 51.8775 99.4701C53.9475 99.4701 55.6275 101.15 55.6275 103.22C55.6275 105.293 53.9475 106.97 51.8775 106.97ZM76.0275 106.97C73.9575 106.97 72.2775 105.293 72.2775 103.22C72.2775 101.15 73.9575 99.4701 76.0275 99.4701C78.0975 99.4701 79.7775 101.15 79.7775 103.22C79.7778 105.293 78.0975 106.97 76.0275 106.97Z" fill="white" fill-opacity="0.25"/>
</g>
<defs>
<clipPath id="clip0_18_345">
<rect width="128" height="128" fill="white"/>
</clipPath>
</defs>
</svg>
