<svg width="128" height="128" viewBox="0 0 128 128" fill="none" xmlns="http://www.w3.org/2000/svg">
<g clip-path="url(#clip0_21_393)">
<path d="M90.6534 58.074C94.6934 51.7438 97.4334 43.5615 97.5559 35.7793L81.2059 52.126C84.8509 53.0333 88.1434 55.23 90.6534 58.074Z" fill="white" fill-opacity="0.25"/>
<path d="M92.2535 30.4785C84.466 30.6035 76.2835 33.3425 69.9535 37.3788C72.7935 39.8903 74.991 43.1793 75.901 46.8255L92.2535 30.4785Z" fill="white" fill-opacity="0.25"/>
<path d="M58.5684 64.152L68.7309 53.993C69.7159 50.794 68.9484 46.9805 66.4159 44.4488L63.6584 41.6923C59.4559 44.7838 54.9084 48.59 50.8259 53.0135L54.3384 56.5248C56.5159 58.7013 57.9234 61.3553 58.5684 64.152Z" fill="white" fill-opacity="0.25"/>
<path d="M75.016 77.1951C79.4385 73.1116 83.246 68.5656 86.3385 64.3646L83.581 61.6081C80.2035 58.2318 75.1285 58.5791 71.786 61.5406L71.7785 61.5481L63.8735 69.4503C66.671 70.0976 69.326 71.5071 71.5035 73.6838L75.016 77.1951Z" fill="white" fill-opacity="0.25"/>
<path d="M55.706 88.7835C60.5635 87.3915 65.081 84.9673 69.1985 81.9833L66.1985 78.9843C62.8235 75.6105 57.751 75.9553 54.4085 78.9143L47.976 85.342C49.6135 88.0138 52.1935 89.7905 55.706 88.7835Z" fill="white" fill-opacity="0.25"/>
<path d="M46.0335 58.8263C43.0485 62.9423 40.6235 67.4583 39.231 72.314C38.2235 75.8253 40.001 78.4045 42.6735 80.0413L50.9385 71.779C52.296 68.5375 51.7285 64.519 49.0335 61.825L46.0335 58.8263Z" fill="white" fill-opacity="0.25"/>
<path d="M32.021 70.2498C34.3135 62.2551 39.1085 54.3978 46.2685 46.9028C52.016 40.8898 59.111 35.2568 67.3585 30.1586C77.0985 24.9253 88.2285 21.8938 99.186 23.5483L121.396 1.34581C100.633 -2.91994 78.3317 3.34381 60.8065 14.6336C37.7997 29.4546 15.031 50.9981 8.58347 77.9498C5.91847 89.0786 11.306 96.8258 20.9035 101.804L37.2435 85.4698C32.5235 81.9858 30.2435 76.4403 32.021 70.2498Z" fill="white" fill-opacity="0.25"/>
<path d="M126.698 6.64661L104.491 28.8466C106.143 39.8004 103.111 50.9291 97.876 60.6681C92.776 68.9104 87.141 76.0054 81.126 81.7484C73.6285 88.9059 65.771 93.6994 57.771 95.9909C51.5785 97.7679 46.031 95.4886 42.5485 90.7701L26.206 107.105C25.6085 105.955 25.0535 104.743 24.5335 103.476C23.3017 102.967 22.092 102.41 20.9035 101.804L0.000976562 122.699L5.30598 128L26.206 107.107C31.1885 116.699 38.936 122.082 50.0685 119.423C79.8385 112.303 103.016 85.2899 117.821 60.0286C127.026 41.8471 129.993 22.6861 126.698 6.64661Z" fill="white" fill-opacity="0.25"/>
</g>
<defs>
<clipPath id="clip0_21_393">
<rect width="128" height="128" fill="white"/>
</clipPath>
</defs>
</svg>
