<svg width="128" height="128" viewBox="0 0 128 128" fill="none" xmlns="http://www.w3.org/2000/svg">
<g clip-path="url(#clip0_24_404)">
<path d="M128 30.0713V128H114.943V103.427L105.125 90.4568V74.766L95.01 63.5968C112.765 62.3068 126.96 47.9285 128 30.0713Z" fill="white" fill-opacity="0.25"/>
<path d="M38.0475 27.2758V41.183L29.815 49.8523H0V27.2758H38.0475Z" fill="white" fill-opacity="0.25"/>
<path d="M59.4275 112.71V104.196L35.195 87.6135H0V128H77.6225L59.4275 112.71ZM30.355 112.598H22.855V105.083H30.355V112.598Z" fill="white" fill-opacity="0.25"/>
<path d="M120.563 27.9619C120.563 42.2297 109.938 54.0579 96.1975 55.9189L109.863 27.9619L96.1975 0.00744629C109.911 1.8632 120.563 14.1209 120.563 27.9619Z" fill="white" fill-opacity="0.25"/>
<path d="M88.6651 55.9268C74.7511 54.1263 63.7911 41.3645 64.2551 27.2757C64.5876 13.2985 75.1201 1.8085 88.6626 0L74.715 27.962L88.6651 55.9268Z" fill="white" fill-opacity="0.25"/>
<path d="M99.675 24.2048H84.975L92.4 9.3208L99.675 24.2048Z" fill="white" fill-opacity="0.25"/>
<path d="M99.675 31.7195L92.4 46.606L84.975 31.7195H99.675Z" fill="white" fill-opacity="0.25"/>
<path d="M97.625 92.984V78.0325L83.655 62.6023C75.71 60.5883 68.82 55.8943 64 49.5418C59.2113 43.2275 56.5782 35.2105 56.7525 27.2758H45.5475V44.1863L33.0325 57.367H0V80.099H37.5125L66.9275 100.228V109.203L89.2925 128H107.442V105.955L97.625 92.984ZM49.345 67.374H41.845V59.8593H49.345V67.374ZM67.75 81.8725H60.2425V74.3578H67.75V81.8725ZM86.4075 98.1493H78.9075V90.6345H86.4075V98.1493Z" fill="white" fill-opacity="0.25"/>
</g>
<defs>
<clipPath id="clip0_24_404">
<rect width="128" height="128" fill="white"/>
</clipPath>
</defs>
</svg>
